<svg width="27" height="27" viewBox="0 0 27 27" fill="none" xmlns="http://www.w3.org/2000/svg">
<path d="M25.1991 20.3062C24.283 19.3832 22.0641 18.0361 20.9875 17.4933C19.5855 16.7871 19.4702 16.7294 18.3682 17.5481C17.6332 18.0944 17.1445 18.5824 16.2843 18.399C15.4241 18.2155 13.5548 17.1811 11.918 15.5497C10.2813 13.9182 9.18683 11.9948 9.00278 11.1376C8.81874 10.2803 9.31491 9.79743 9.85607 9.06073C10.6188 8.02231 10.5611 7.84924 9.90915 6.44738C9.40087 5.35704 8.01449 3.15906 7.08793 2.24756C6.09675 1.26857 6.09675 1.44164 5.45808 1.70701C4.93813 1.92576 4.4393 2.19167 3.96785 2.5014C3.04475 3.11464 2.53243 3.62404 2.17415 4.38959C1.81588 5.15513 1.65491 6.94986 3.50515 10.3109C5.35539 13.6719 6.65349 15.3905 9.34029 18.0696C12.0271 20.7487 14.0931 22.1892 17.1134 23.883C20.8496 25.9754 22.2827 25.5675 23.0506 25.2098C23.8185 24.8522 24.3303 24.3445 24.9447 23.4215C25.2553 22.9508 25.5218 22.4526 25.7409 21.9331C26.0069 21.2967 26.1799 21.2967 25.1991 20.3062Z" stroke="#1C2752" stroke-width="2" stroke-miterlimit="10"/>
</svg>
